<mxfile host="app.diagrams.net" agent="Mozilla/5.0 (Windows NT 10.0; Win64; x64) AppleWebKit/537.36 (KHTML, like Gecko) Chrome/135.0.0.0 Safari/537.36" version="26.2.14">
  <diagram name="Página-1" id="eZxk7vh4gY2uU3sq8fQ5">
    <mxGraphModel dx="834" dy="1591" grid="1" gridSize="10" guides="1" tooltips="1" connect="1" arrows="1" fold="1" page="1" pageScale="1" pageWidth="827" pageHeight="1169" math="0" shadow="0">
      <root>
        <mxCell id="0" />
        <mxCell id="1" parent="0" />
        <mxCell id="LHcRP16TN9TMwsjz695R-77" value="" style="rounded=1;whiteSpace=wrap;html=1;absoluteArcSize=1;arcSize=14;strokeWidth=2;" vertex="1" parent="1">
          <mxGeometry x="210" y="-370" width="460" height="900" as="geometry" />
        </mxCell>
        <mxCell id="LHcRP16TN9TMwsjz695R-1" value="Nutricionista" style="shape=umlActor;verticalLabelPosition=bottom;verticalAlign=top;html=1;" vertex="1" parent="1">
          <mxGeometry x="110" y="130" width="30" height="60" as="geometry" />
        </mxCell>
        <mxCell id="LHcRP16TN9TMwsjz695R-2" value="Paciente" style="shape=umlActor;verticalLabelPosition=bottom;verticalAlign=top;html=1;" vertex="1" parent="1">
          <mxGeometry x="110" y="-70" width="30" height="60" as="geometry" />
        </mxCell>
        <mxCell id="LHcRP16TN9TMwsjz695R-10" value="Cadastrar Paciente" style="strokeWidth=2;html=1;shape=mxgraph.flowchart.start_1;whiteSpace=wrap;" vertex="1" parent="1">
          <mxGeometry x="500" y="150" width="120" height="60" as="geometry" />
        </mxCell>
        <mxCell id="LHcRP16TN9TMwsjz695R-11" value="Cadastrar Refeição" style="strokeWidth=2;html=1;shape=mxgraph.flowchart.start_1;whiteSpace=wrap;" vertex="1" parent="1">
          <mxGeometry x="382.5" y="200" width="115" height="60" as="geometry" />
        </mxCell>
        <mxCell id="LHcRP16TN9TMwsjz695R-12" value="Cadastrar Plano Alimentar" style="strokeWidth=2;html=1;shape=mxgraph.flowchart.start_1;whiteSpace=wrap;" vertex="1" parent="1">
          <mxGeometry x="495" y="290" width="112.5" height="60" as="geometry" />
        </mxCell>
        <mxCell id="LHcRP16TN9TMwsjz695R-24" value="" style="html=1;verticalAlign=bottom;endArrow=block;curved=0;rounded=0;exitX=1;exitY=0.3333333333333333;exitDx=0;exitDy=0;exitPerimeter=0;entryX=0;entryY=0.5;entryDx=0;entryDy=0;entryPerimeter=0;" edge="1" parent="1" source="LHcRP16TN9TMwsjz695R-1" target="LHcRP16TN9TMwsjz695R-10">
          <mxGeometry width="80" relative="1" as="geometry">
            <mxPoint x="140" y="350" as="sourcePoint" />
            <mxPoint x="340" y="250" as="targetPoint" />
          </mxGeometry>
        </mxCell>
        <mxCell id="LHcRP16TN9TMwsjz695R-26" value="" style="html=1;verticalAlign=bottom;endArrow=block;curved=0;rounded=0;entryX=0;entryY=0.5;entryDx=0;entryDy=0;entryPerimeter=0;exitX=1;exitY=0.3333333333333333;exitDx=0;exitDy=0;exitPerimeter=0;" edge="1" parent="1" source="LHcRP16TN9TMwsjz695R-1" target="LHcRP16TN9TMwsjz695R-11">
          <mxGeometry width="80" relative="1" as="geometry">
            <mxPoint x="140" y="350" as="sourcePoint" />
            <mxPoint x="340" y="405" as="targetPoint" />
          </mxGeometry>
        </mxCell>
        <mxCell id="LHcRP16TN9TMwsjz695R-27" value="Prescrever plano alimentar" style="ellipse;whiteSpace=wrap;html=1;" vertex="1" parent="1">
          <mxGeometry x="370" y="340" width="115" height="60" as="geometry" />
        </mxCell>
        <mxCell id="LHcRP16TN9TMwsjz695R-29" value="" style="html=1;verticalAlign=bottom;endArrow=block;curved=0;rounded=0;entryX=0.026;entryY=0.358;entryDx=0;entryDy=0;exitX=1;exitY=0.3333333333333333;exitDx=0;exitDy=0;exitPerimeter=0;entryPerimeter=0;" edge="1" parent="1" source="LHcRP16TN9TMwsjz695R-1" target="LHcRP16TN9TMwsjz695R-12">
          <mxGeometry width="80" relative="1" as="geometry">
            <mxPoint x="140" y="350" as="sourcePoint" />
            <mxPoint x="338" y="495" as="targetPoint" />
          </mxGeometry>
        </mxCell>
        <mxCell id="LHcRP16TN9TMwsjz695R-30" value="Registro de bioimpedância" style="ellipse;whiteSpace=wrap;html=1;" vertex="1" parent="1">
          <mxGeometry x="380" y="100" width="120" height="60" as="geometry" />
        </mxCell>
        <mxCell id="LHcRP16TN9TMwsjz695R-31" value="" style="html=1;verticalAlign=bottom;endArrow=block;curved=0;rounded=0;exitX=1;exitY=0.3333333333333333;exitDx=0;exitDy=0;exitPerimeter=0;entryX=0;entryY=0.5;entryDx=0;entryDy=0;" edge="1" parent="1" source="LHcRP16TN9TMwsjz695R-1" target="LHcRP16TN9TMwsjz695R-30">
          <mxGeometry width="80" relative="1" as="geometry">
            <mxPoint x="110" y="290" as="sourcePoint" />
            <mxPoint x="310" y="190" as="targetPoint" />
          </mxGeometry>
        </mxCell>
        <mxCell id="LHcRP16TN9TMwsjz695R-43" value="Emitir relatório de comparação antopométrica" style="ellipse;whiteSpace=wrap;html=1;" vertex="1" parent="1">
          <mxGeometry x="380" y="-190" width="120" height="65" as="geometry" />
        </mxCell>
        <mxCell id="LHcRP16TN9TMwsjz695R-45" value="Emitir relatório de plano alimentar" style="ellipse;whiteSpace=wrap;html=1;" vertex="1" parent="1">
          <mxGeometry x="500" y="-110" width="120" height="65" as="geometry" />
        </mxCell>
        <mxCell id="LHcRP16TN9TMwsjz695R-47" value="Manter dados de usuário" style="strokeWidth=2;html=1;shape=mxgraph.flowchart.start_1;whiteSpace=wrap;" vertex="1" parent="1">
          <mxGeometry x="500" y="-290" width="110" height="60" as="geometry" />
        </mxCell>
        <mxCell id="LHcRP16TN9TMwsjz695R-54" value="Usuário" style="shape=umlActor;verticalLabelPosition=bottom;verticalAlign=top;html=1;" vertex="1" parent="1">
          <mxGeometry x="110" y="-230" width="30" height="60" as="geometry" />
        </mxCell>
        <mxCell id="LHcRP16TN9TMwsjz695R-57" value="Fazer Login" style="strokeWidth=2;html=1;shape=mxgraph.flowchart.start_1;whiteSpace=wrap;" vertex="1" parent="1">
          <mxGeometry x="370" y="-350" width="110" height="60" as="geometry" />
        </mxCell>
        <mxCell id="LHcRP16TN9TMwsjz695R-58" value="" style="html=1;verticalAlign=bottom;endArrow=block;curved=0;rounded=0;exitX=1;exitY=0.3333333333333333;exitDx=0;exitDy=0;exitPerimeter=0;entryX=0;entryY=0.5;entryDx=0;entryDy=0;entryPerimeter=0;" edge="1" parent="1" source="LHcRP16TN9TMwsjz695R-54" target="LHcRP16TN9TMwsjz695R-57">
          <mxGeometry width="80" relative="1" as="geometry">
            <mxPoint x="20" y="-8.5" as="sourcePoint" />
            <mxPoint x="375" y="-291.5" as="targetPoint" />
          </mxGeometry>
        </mxCell>
        <mxCell id="LHcRP16TN9TMwsjz695R-59" value="" style="html=1;verticalAlign=bottom;endArrow=block;curved=0;rounded=0;entryX=0;entryY=0.5;entryDx=0;entryDy=0;entryPerimeter=0;exitX=1;exitY=0.3333333333333333;exitDx=0;exitDy=0;exitPerimeter=0;" edge="1" parent="1" source="LHcRP16TN9TMwsjz695R-54" target="LHcRP16TN9TMwsjz695R-47">
          <mxGeometry width="80" relative="1" as="geometry">
            <mxPoint x="140" y="-200" as="sourcePoint" />
            <mxPoint x="380" y="-250" as="targetPoint" />
          </mxGeometry>
        </mxCell>
        <mxCell id="LHcRP16TN9TMwsjz695R-61" value="" style="html=1;verticalAlign=bottom;endArrow=block;curved=0;rounded=0;exitX=1;exitY=0.3333333333333333;exitDx=0;exitDy=0;exitPerimeter=0;entryX=0;entryY=0.5;entryDx=0;entryDy=0;" edge="1" parent="1" source="LHcRP16TN9TMwsjz695R-2" target="LHcRP16TN9TMwsjz695R-43">
          <mxGeometry width="80" relative="1" as="geometry">
            <mxPoint x="130" as="sourcePoint" />
            <mxPoint x="360" y="-120" as="targetPoint" />
          </mxGeometry>
        </mxCell>
        <mxCell id="LHcRP16TN9TMwsjz695R-63" value="" style="html=1;verticalAlign=bottom;endArrow=block;curved=0;rounded=0;exitX=1;exitY=0.3333333333333333;exitDx=0;exitDy=0;exitPerimeter=0;entryX=0;entryY=0.5;entryDx=0;entryDy=0;" edge="1" parent="1" source="LHcRP16TN9TMwsjz695R-2" target="LHcRP16TN9TMwsjz695R-45">
          <mxGeometry width="80" relative="1" as="geometry">
            <mxPoint x="150" y="-40" as="sourcePoint" />
            <mxPoint x="390" y="-147" as="targetPoint" />
          </mxGeometry>
        </mxCell>
        <mxCell id="LHcRP16TN9TMwsjz695R-64" value="Emitir relatório de biopendância" style="ellipse;whiteSpace=wrap;html=1;" vertex="1" parent="1">
          <mxGeometry x="380" y="-20" width="120" height="65" as="geometry" />
        </mxCell>
        <mxCell id="LHcRP16TN9TMwsjz695R-65" value="" style="html=1;verticalAlign=bottom;endArrow=block;curved=0;rounded=0;entryX=0;entryY=0.5;entryDx=0;entryDy=0;exitX=1;exitY=0.3333333333333333;exitDx=0;exitDy=0;exitPerimeter=0;" edge="1" parent="1" source="LHcRP16TN9TMwsjz695R-2" target="LHcRP16TN9TMwsjz695R-64">
          <mxGeometry width="80" relative="1" as="geometry">
            <mxPoint x="-55" y="47" as="sourcePoint" />
            <mxPoint x="305" y="20" as="targetPoint" />
          </mxGeometry>
        </mxCell>
        <mxCell id="LHcRP16TN9TMwsjz695R-66" value="" style="html=1;verticalAlign=bottom;endArrow=block;curved=0;rounded=0;entryX=0.041;entryY=0.303;entryDx=0;entryDy=0;exitX=1;exitY=0.3333333333333333;exitDx=0;exitDy=0;exitPerimeter=0;entryPerimeter=0;" edge="1" parent="1" source="LHcRP16TN9TMwsjz695R-1" target="LHcRP16TN9TMwsjz695R-27">
          <mxGeometry width="80" relative="1" as="geometry">
            <mxPoint x="13" y="200" as="sourcePoint" />
            <mxPoint x="380" y="371" as="targetPoint" />
          </mxGeometry>
        </mxCell>
        <mxCell id="LHcRP16TN9TMwsjz695R-67" value="" style="html=1;verticalAlign=bottom;endArrow=block;curved=0;rounded=0;" edge="1" parent="1">
          <mxGeometry width="80" relative="1" as="geometry">
            <mxPoint x="125" y="-80" as="sourcePoint" />
            <mxPoint x="125" y="-150" as="targetPoint" />
          </mxGeometry>
        </mxCell>
        <mxCell id="LHcRP16TN9TMwsjz695R-68" value="" style="html=1;verticalAlign=bottom;endArrow=block;curved=0;rounded=0;" edge="1" parent="1">
          <mxGeometry width="80" relative="1" as="geometry">
            <mxPoint x="125" y="120" as="sourcePoint" />
            <mxPoint x="125" y="10" as="targetPoint" />
          </mxGeometry>
        </mxCell>
        <mxCell id="LHcRP16TN9TMwsjz695R-69" value="Sistema" style="shape=umlActor;verticalLabelPosition=bottom;verticalAlign=top;html=1;" vertex="1" parent="1">
          <mxGeometry x="110" y="430" width="30" height="60" as="geometry" />
        </mxCell>
        <mxCell id="LHcRP16TN9TMwsjz695R-74" value="Cadastrar alimentos" style="ellipse;whiteSpace=wrap;html=1;" vertex="1" parent="1">
          <mxGeometry x="310" y="440" width="115" height="60" as="geometry" />
        </mxCell>
        <mxCell id="LHcRP16TN9TMwsjz695R-75" value="" style="html=1;verticalAlign=bottom;endArrow=block;curved=0;rounded=0;entryX=0;entryY=0.5;entryDx=0;entryDy=0;exitX=1;exitY=0.3333333333333333;exitDx=0;exitDy=0;exitPerimeter=0;" edge="1" parent="1" source="LHcRP16TN9TMwsjz695R-69" target="LHcRP16TN9TMwsjz695R-74">
          <mxGeometry width="80" relative="1" as="geometry">
            <mxPoint x="40" y="270" as="sourcePoint" />
            <mxPoint x="275" y="478" as="targetPoint" />
          </mxGeometry>
        </mxCell>
        <mxCell id="LHcRP16TN9TMwsjz695R-76" value="" style="html=1;verticalAlign=bottom;endArrow=block;curved=0;rounded=0;" edge="1" parent="1">
          <mxGeometry width="80" relative="1" as="geometry">
            <mxPoint x="125" y="420" as="sourcePoint" />
            <mxPoint x="125" y="220" as="targetPoint" />
          </mxGeometry>
        </mxCell>
        <mxCell id="LHcRP16TN9TMwsjz695R-78" value="APP Refeições" style="html=1;whiteSpace=wrap;" vertex="1" parent="1">
          <mxGeometry x="560" y="-400" width="110" height="20" as="geometry" />
        </mxCell>
      </root>
    </mxGraphModel>
  </diagram>
</mxfile>
